nColumns=28
nRows=46
DataType=double
version=3
OpenSimVersion=4.1
endheader
time	ground_force_1_vx	ground_force_1_vy	ground_force_1_vz	ground_force_1_px	ground_force_1_py	ground_force_1_pz	ground_force_1_mx	ground_force_1_my	ground_force_1_mz	ground_force_2_vx	ground_force_2_vy	ground_force_2_vz	ground_force_2_px	ground_force_2_py	ground_force_2_pz	ground_force_2_mx	ground_force_2_my	ground_force_2_mz	ground_force_3_vx	ground_force_3_vy	ground_force_3_vz	ground_force_3_px	ground_force_3_py	ground_force_3_pz	ground_force_3_mx	ground_force_3_my	ground_force_3_mz
0	-1.27923	351.899	-30.3349	-0.235875	0.006	-0.44624	0	-1.37468	0	-0.162825	203.81	34.0759	-0.236029	0.006	-0.836426	0	1.58187	0	0	0	0	0	0	0	0	0	0
0.01	-1.33271	349.911	-30.1407	-0.235907	0.006	-0.446343	0	-1.35426	0	-0.12867	206.706	34.7019	-0.236237	0.006	-0.836628	0	1.55679	0	0	0	0	0	0	0	0	0	0
0.02	-1.39192	347.519	-29.8881	-0.235938	0.006	-0.44646	0	-1.33088	0	-0.122172	210.098	35.4442	-0.236432	0.006	-0.836851	0	1.53177	0	0	0	0	0	0	0	0	0	0
0.03	-1.45549	344.71	-29.5714	-0.235968	0.006	-0.446593	0	-1.30456	0	-0.152606	213.957	36.2974	-0.236603	0.006	-0.837091	0	1.50741	0	0	0	0	0	0	0	0	0	0
0.04	-1.52104	341.482	-29.1879	-0.236	0.006	-0.446742	0	-1.27545	0	-0.229383	218.224	37.2492	-0.236737	0.006	-0.837343	0	1.48398	0	0	0	0	0	0	0	0	0	0
0.05	-1.58549	337.84	-28.7373	-0.236039	0.006	-0.446911	0	-1.24377	0	-0.362024	222.812	38.2802	-0.236824	0.006	-0.837602	0	1.46152	0	0	0	0	0	0	0	0	0	0
0.06	-1.64553	333.79	-28.221	-0.236091	0.006	-0.447102	0	-1.20973	0	-0.55984	227.604	39.3637	-0.236852	0.006	-0.837865	0	1.44	0	0	0	0	0	0	0	0	0	0
0.07	-1.69757	329.342	-27.6419	-0.236164	0.006	-0.447316	0	-1.17362	0	-0.83131	232.454	40.4669	-0.236812	0.006	-0.838129	0	1.41923	0	0	0	0	0	0	0	0	0	0
0.08	-1.73807	324.509	-27.0041	-0.236268	0.006	-0.447556	0	-1.13581	0	-1.18302	237.199	41.5529	-0.236694	0.006	-0.838392	0	1.39892	0	0	0	0	0	0	0	0	0	0
0.09	-1.76419	319.304	-26.3131	-0.236414	0.006	-0.44782	0	-1.09671	0	-1.61755	241.663	42.5831	-0.236493	0.006	-0.838651	0	1.37866	0	0	0	0	0	0	0	0	0	0
0.1	-1.77453	313.743	-25.5754	-0.236615	0.006	-0.448108	0	-1.05668	0	-2.13127	245.676	43.5211	-0.236207	0.006	-0.838904	0	1.35788	0	0	0	0	0	0	0	0	0	0
0.11	-1.76957	307.844	-24.7978	-0.236883	0.006	-0.448418	0	-1.01604	0	-2.71353	249.089	44.3356	-0.235836	0.006	-0.83915	0	1.33592	0	0	0	0	0	0	0	0	0	0
0.12	-1.75177	301.632	-23.9873	-0.237234	0.006	-0.448749	0	-0.975003	0	-3.34658	251.786	45.0031	-0.235385	0.006	-0.839389	0	1.31207	0	0	0	0	0	0	0	0	0	0
0.13	-1.72546	295.131	-23.1497	-0.237681	0.006	-0.449102	0	-0.933725	0	-4.0064	253.696	45.5095	-0.234865	0.006	-0.839623	0	1.2857	0	0	0	0	0	0	0	0	0	0
0.14	-1.69575	288.367	-22.2895	-0.238233	0.006	-0.449474	0	-0.892343	0	-4.66478	254.789	45.8502	-0.234289	0.006	-0.839851	0	1.25643	0	0	0	0	0	0	0	0	0	0
0.15	-1.66705	281.367	-21.4084	-0.2389	0.006	-0.449865	0	-0.851006	0	-5.2926	255.072	46.0281	-0.233674	0.006	-0.840075	0	1.22425	0	0	0	0	0	0	0	0	0	0
0.16	-1.64084	274.164	-20.5059	-0.239689	0.006	-0.450277	0	-0.809965	0	-5.86374	254.579	46.0518	-0.233035	0.006	-0.840295	0	1.18945	0	0	0	0	0	0	0	0	0	0
0.17	-1.61412	266.802	-19.5788	-0.240603	0.006	-0.450709	0	-0.769606	0	-6.35753	253.358	45.9321	-0.232387	0.006	-0.84051	0	1.15254	0	0	0	0	0	0	0	0	0	0
0.18	-1.58021	259.338	-18.6238	-0.241647	0.006	-0.451165	0	-0.730329	0	-6.75917	251.454	45.6783	-0.23174	0.006	-0.840721	0	1.11422	0	0	0	0	0	0	0	0	0	0
0.19	-1.53123	251.844	-17.6395	-0.242819	0.006	-0.451645	0	-0.692468	0	-7.06014	248.897	45.2962	-0.2311	0.006	-0.840924	0	1.07529	0	0	0	0	0	0	0	0	0	0
0.2	-1.46094	244.412	-16.6298	-0.244114	0.006	-0.452148	0	-0.656258	0	-7.25828	245.692	44.7861	-0.230471	0.006	-0.84112	0	1.0367	0	0	0	0	0	0	0	0	0	0
0.21	-1.36785	237.161	-15.6069	-0.245521	0.006	-0.452669	0	-0.621778	0	-7.35758	241.814	44.1428	-0.229848	0.006	-0.841306	0	0.999397	0	0	0	0	0	0	0	0	0	0
0.22	-1.25646	230.244	-14.5914	-0.247026	0.006	-0.453202	0	-0.588993	0	-7.36928	237.215	43.3564	-0.229222	0.006	-0.84148	0	0.964259	0	0	0	0	0	0	0	0	0	0
0.23	-1.13643	223.863	-13.6108	-0.248614	0.006	-0.453735	0	-0.557756	0	-7.31069	231.83	42.4151	-0.228575	0.006	-0.841643	0	0.932051	0	0	0	0	0	0	0	0	0	0
0.24	-1.01755	218.265	-12.696	-0.250266	0.006	-0.454254	0	-0.527895	0	-7.20181	225.598	41.3068	-0.227882	0.006	-0.841796	0	0.903348	0	0	0	0	0	0	0	0	0	0
0.25	-0.902065	213.738	-11.8778	-0.251959	0.006	-0.454743	0	-0.499361	0	-7.0612	218.475	40.0218	-0.227113	0.006	-0.84194	0	0.878603	0	0	0	0	0	0	0	0	0	0
0.26	-0.781135	210.573	-11.1845	-0.253668	0.006	-0.455184	0	-0.472263	0	-6.90127	210.445	38.5543	-0.226236	0.006	-0.842078	0	0.858304	0	0	0	0	0	0	0	0	0	0
0.27	-0.635239	209.033	-10.6403	-0.255357	0.006	-0.455558	0	-0.44698	0	-6.72631	201.535	36.9046	-0.225217	0.006	-0.842211	0	0.84306	0	0	0	0	0	0	0	0	0	0
0.28	-0.440242	209.313	-10.2645	-0.25699	0.006	-0.455851	0	-0.424158	0	-6.53613	191.827	35.0815	-0.224022	0.006	-0.842342	0	0.833529	0	0	0	0	0	0	0	0	0	0
0.29	-0.179903	211.525	-10.0734	-0.258527	0.006	-0.456048	0	-0.404459	0	-6.32963	181.453	33.1039	-0.222619	0.006	-0.84247	0	0.830345	0	0	0	0	0	0	0	0	0	0
0.3	0.144344	215.711	-10.0795	-0.259934	0.006	-0.456144	0	-0.388272	0	-6.1061	170.602	30.9998	-0.220983	0.006	-0.842594	0	0.833971	0	0	0	0	0	0	0	0	0	0
0.31	0.514221	221.861	-10.2906	-0.261186	0.006	-0.456139	0	-0.375603	0	-5.86607	159.502	28.8056	-0.219093	0.006	-0.842711	0	0.844514	0	0	0	0	0	0	0	0	0	0
0.32	0.903049	229.925	-10.711	-0.262267	0.006	-0.45604	0	-0.366276	0	-5.61119	148.414	26.5636	-0.216939	0.006	-0.842816	0	0.861802	0	0	0	0	0	0	0	0	0	0
0.33	1.28581	239.814	-11.3421	-0.263179	0.006	-0.455859	0	-0.360337	0	-5.34325	137.609	24.3202	-0.214533	0.006	-0.8429	0	0.885554	0	0	0	0	0	0	0	0	0	0
0.34	1.64797	251.391	-12.184	-0.263932	0.006	-0.455611	0	-0.358448	0	-5.06292	127.346	22.1216	-0.211907	0.006	-0.842956	0	0.915379	0	0	0	0	0	0	0	0	0	0
0.35	1.98853	264.45	-13.235	-0.264545	0.006	-0.455312	0	-0.361973	0	-4.76835	117.853	20.0108	-0.209127	0.006	-0.842974	0	0.950751	0	0	0	0	0	0	0	0	0	0
0.36	2.31451	278.721	-14.4893	-0.265037	0.006	-0.454974	0	-0.372835	0	-4.45586	109.306	18.0248	-0.206283	0.006	-0.842948	0	0.990998	0	0	0	0	0	0	0	0	0	0
0.37	2.63185	293.881	-15.9329	-0.265426	0.006	-0.454611	0	-0.393042	0	-4.12324	101.834	16.1935	-0.203493	0.006	-0.842873	0	1.03529	0	0	0	0	0	0	0	0	0	0
0.38	2.94146	309.591	-17.5377	-0.265726	0.006	-0.454236	0	-0.424026	0	-3.77179	95.5134	14.5409	-0.200892	0.006	-0.84275	0	1.08259	0	0	0	0	0	0	0	0	0	0
0.39	3.24012	325.536	-19.2601	-0.265945	0.006	-0.453863	0	-0.466155	0	-3.40605	90.38	13.0853	-0.198619	0.006	-0.842587	0	1.13166	0	0	0	0	0	0	0	0	0	0
0.4	3.52422	341.447	-21.0428	-0.266091	0.006	-0.453503	0	-0.518475	0	-3.03164	86.4294	11.8393	-0.196801	0.006	-0.842398	0	1.18117	0	0	0	0	0	0	0	0	0	0
0.41	3.79487	357.108	-22.8174	-0.266171	0.006	-0.453171	0	-0.578601	0	-2.65459	83.6238	10.8093	-0.19553	0.006	-0.842203	0	1.22981	0	0	0	0	0	0	0	0	0	0
0.42	4.06024	372.34	-24.5112	-0.266193	0.006	-0.452878	0	-0.642972	0	-2.28185	81.8961	9.9966	-0.194849	0.006	-0.842024	0	1.27655	0	0	0	0	0	0	0	0	0	0
0.43	4.33638	386.974	-26.0556	-0.266168	0.006	-0.452632	0	-0.707306	0	-1.92127	81.1521	9.39747	-0.194742	0.006	-0.841888	0	1.32061	0	0	0	0	0	0	0	0	0	0
0.44	4.64305	400.842	-27.3952	-0.266108	0.006	-0.452441	0	-0.767194	0	-1.58111	81.2743	9.00306	-0.195142	0.006	-0.841817	0	1.36165	0	0	0	0	0	0	0	0	0	0
0.45	4.99557	413.78	-28.4927	-0.266022	0.006	-0.452308	0	-0.818572	0	-1.26912	82.1271	8.79918	-0.195938	0.006	-0.841828	0	1.39983	0	0	0	0	0	0	0	0	0	0
